<?xml version="1.0" standalone="no"?>
<!DOCTYPE svg PUBLIC "-//W3C//DTD SVG 1.1//EN" "http://www.w3.org/Graphics/SVG/1.1/DTD/svg11.dtd" >
<svg xmlns="http://www.w3.org/2000/svg" xmlns:xlink="http://www.w3.org/1999/xlink" version="1.1">
<metadata></metadata>
<defs>
<font id="ropa_sansregular" horiz-adv-x="1064" >
<font-face units-per-em="2048" ascent="1638" descent="-410" />
<missing-glyph horiz-adv-x="614" />
<glyph horiz-adv-x="0" />
<glyph unicode="&#xd;" horiz-adv-x="614" />
<glyph horiz-adv-x="0" />
<glyph horiz-adv-x="0" />
<glyph horiz-adv-x="0" />
<glyph horiz-adv-x="0" />
<glyph horiz-adv-x="0" />
<glyph horiz-adv-x="0" />
<glyph horiz-adv-x="0" />
<glyph horiz-adv-x="0" />
<glyph unicode="&#x9;" horiz-adv-x="0" />
<glyph horiz-adv-x="0" />
<glyph horiz-adv-x="0" />
<glyph horiz-adv-x="0" />
<glyph horiz-adv-x="0" />
<glyph horiz-adv-x="0" />
<glyph horiz-adv-x="0" />
<glyph horiz-adv-x="0" />
<glyph horiz-adv-x="0" />
<glyph horiz-adv-x="0" />
<glyph horiz-adv-x="0" />
<glyph unicode=" "  horiz-adv-x="614" />
<glyph unicode="&#x09;" horiz-adv-x="614" />
<glyph unicode="&#xa0;" horiz-adv-x="614" />
<glyph unicode="!" horiz-adv-x="432" d="M102 68v59q0 94 113 94q115 0 115 -94v-59q0 -92 -115 -93q-113 0 -113 93zM119 1423h194l-14 -1013h-166z" />
<glyph unicode="&#x22;" horiz-adv-x="768" d="M154 879v520h174v-520h-174zM440 879v520h174v-520h-174z" />
<glyph unicode="#" d="M35 256v143h164v457h-164v143h164v256h174v-256h319v256h174v-256h164v-143h-164v-457h164v-143h-164v-256h-174v256h-319v-256h-174v256h-164zM373 399h319v457h-319v-457z" />
<glyph unicode="$" d="M152 903v10q0 150 71.5 234t239.5 102v174h153v-170q55 -4 111.5 -11t112.5 -15l-4 -150q-57 10 -127 19.5t-142 9.5q-135 0 -188 -45t-53 -131v-41q0 -37 5 -62.5t21.5 -46t47 -36t81.5 -29.5l129 -39q88 -27 145.5 -56.5t92.5 -69.5t49 -93.5t14 -128.5v-11 q0 -137 -65.5 -223t-229.5 -108v-179h-153v168q-66 2 -130.5 12.5t-129.5 22.5l4 150q76 -16 139.5 -25.5t128.5 -9.5q147 0 204.5 45t57.5 131v41q0 33 -7 57.5t-26.5 43t-54.5 35t-90 32.5l-127 39q-82 25 -136 52.5t-86 67.5t-45 96t-13 138z" />
<glyph unicode="%" horiz-adv-x="1888" d="M133 866v62q0 158 81 242.5t243 84.5t241.5 -85t79.5 -242v-62q0 -158 -80 -242.5t-241 -84.5q-162 0 -243 85t-81 242zM307 866q0 -92 37 -133t113 -41q74 0 110.5 41t36.5 133v62q0 94 -37 134t-110 40q-74 0 -112 -41t-38 -133v-62zM520 0l686 1255h178l-686 -1255 h-178zM1110 303v62q0 158 81 242.5t243 84.5t241.5 -85t79.5 -242v-62q0 -158 -80 -243t-241 -85q-162 0 -243 85t-81 243zM1284 303q0 -92 37 -133t113 -41q74 0 110.5 41t36.5 133v62q0 94 -37 134t-110 40q-74 0 -112 -41t-38 -133v-62z" />
<glyph unicode="&#x26;" horiz-adv-x="1085" d="M72 332v45q0 115 61.5 200t177.5 119q-102 45 -145 122t-43 175v45q0 68 24.5 128.5t71.5 104.5t119 69.5t164 25.5q57 0 114.5 -6t126.5 -17l-4 -145q-53 10 -112 16.5t-125 6.5q-111 0 -160 -51.5t-49 -145.5v-45q0 -104 64.5 -165.5t191.5 -61.5h207v149h168v-149h151 v-142h-151v-583q-66 -14 -115 -23.5t-91 -15.5t-82 -9.5t-87 -3.5q-135 0 -226.5 26t-147.5 73t-79.5 112.5t-23.5 145.5zM246 330q0 -98 72.5 -152.5t230.5 -54.5q53 0 99 6t108 21v460h-219q-150 0 -220.5 -60.5t-70.5 -164.5v-55z" />
<glyph unicode="'" horiz-adv-x="481" d="M154 879v520h174v-520h-174z" />
<glyph unicode="(" d="M334 133v1102q0 113 13 185.5t52 115.5t107.5 59.5t177.5 16.5v-148q-55 -4 -90 -11t-53.5 -24.5t-25.5 -45t-7 -72.5v-1223q0 -55 5 -89t23.5 -54.5t53.5 -29.5t94 -11v-148q-109 0 -177.5 16.5t-107.5 59.5t-52 115.5t-13 185.5z" />
<glyph unicode=")" d="M379 -96q59 2 94 11t53.5 29.5t23.5 54.5t5 89v1223q0 45 -7 72.5t-25.5 45t-53.5 24.5t-90 11v148q109 0 177.5 -16.5t106 -59.5t52 -115.5t14.5 -185.5v-1102q0 -113 -14.5 -185.5t-52 -115.5t-106.5 -59.5t-177 -16.5v148z" />
<glyph unicode="*" horiz-adv-x="839" d="M113 1149l47 135l209 -88l-21 227h141l-20 -229l211 90l47 -135l-227 -51l151 -172l-116 -84l-117 196l-117 -198l-115 86l152 174z" />
<glyph unicode="+" d="M168 543v145h287v311h155v-311h287v-145h-287v-312h-155v312h-287z" />
<glyph unicode="," horiz-adv-x="450" d="M113 -330l73 312q-72 16 -71 88v59q0 92 110 92q113 0 113 -92v-63q0 -59 -14 -105l-88 -291h-123z" />
<glyph unicode="-" horiz-adv-x="716" d="M133 539v133h451v-133h-451z" />
<glyph unicode="." horiz-adv-x="452" d="M113 68v59q0 94 112 94q115 0 115 -94v-59q0 -92 -115 -93q-113 0 -112 93z" />
<glyph unicode="/" d="M236 0l419 1399h174l-419 -1399h-174z" />
<glyph unicode="0" d="M154 395v441q0 213 98 316t280 103t280.5 -103t98.5 -316v-441q0 -213 -98 -316.5t-281 -103.5q-182 0 -280 103.5t-98 316.5zM328 379q0 -135 54 -195.5t150 -60.5t150.5 60.5t54.5 195.5v473q0 135 -54 195.5t-151 60.5q-98 0 -151 -60.5t-53 -195.5v-473z" />
<glyph unicode="1" d="M174 1096l332 135h153v-1081h230v-150h-666v150h262v913h-4l-272 -117z" />
<glyph unicode="2" d="M195 0v133l409 518q29 37 47.5 65.5t28.5 54.5t13 53.5t3 64.5v37q0 98 -50 140t-163 42q-59 0 -131.5 -13.5t-126.5 -29.5v149q68 18 136.5 29.5t121.5 11.5q201 0 294 -79.5t93 -239.5v-45q0 -43 -6 -84t-23.5 -85t-51 -96.5t-89.5 -117.5l-297 -358h461v-150h-669z " />
<glyph unicode="3" d="M211 2v145q53 -10 129 -18t135 -8q98 0 151.5 54t53.5 149v32q0 209 -215 209h-182v140h182q98 0 143 48t45 154v39q0 166 -184 166q-59 0 -132 -9t-126 -20v146q68 10 136.5 18t121.5 8q176 0 267 -84t91 -235v-21q0 -94 -38.5 -163.5t-118.5 -108.5q86 -35 135 -112.5 t49 -176.5v-20q0 -78 -23.5 -144.5t-71.5 -113.5t-119 -74t-165 -27q-53 0 -124.5 8.5t-139.5 18.5z" />
<glyph unicode="4" d="M104 356l281 875h158l-258 -823h356v413h168v-413h152v-144h-152v-264h-170v264h-489z" />
<glyph unicode="5" d="M168 504v733h631v-150h-457v-395q115 90 272 90q137 0 210 -79.5t73 -268.5v-74q0 -190 -98.5 -287.5t-300.5 -97.5q-39 0 -81 4.5t-83 10.5t-78 14t-68 16v142q27 -6 69 -13.5t86 -12.5t84 -9t67 -4q115 0 172 60.5t57 176.5v80q0 104 -40 150.5t-112 46.5 q-82 0 -144 -31t-126 -102h-133z" />
<glyph unicode="6" d="M154 365v376q0 242 161.5 369t487.5 131v-149q-258 -4 -366.5 -85t-108.5 -233v-115q78 74 145.5 106t128.5 32q143 0 226 -88t83 -275v-80q0 -186 -97 -282.5t-284 -96.5q-186 0 -281 101.5t-95 288.5zM328 354q0 -231 202 -231q207 0 207 221v96q0 104 -44 154.5 t-122 50.5q-59 0 -121.5 -40t-121.5 -93v-158z" />
<glyph unicode="7" d="M162 1079v150h739v-119l-459 -1110h-186l459 1075v4h-553z" />
<glyph unicode="8" d="M133 334v31q0 213 182 292q-66 39 -97.5 106.5t-31.5 158.5v10q0 156 93.5 239.5t252.5 83.5q160 0 253.5 -82.5t93.5 -240.5v-10q0 -90 -32 -158t-97 -107q88 -41 135 -113.5t47 -178.5v-31q0 -168 -101.5 -263.5t-298.5 -95.5q-195 0 -297 94.5t-102 264.5zM307 317 q0 -88 57.5 -142t167.5 -54q111 0 168.5 54t57.5 142v52q0 106 -60.5 162.5t-165.5 56.5q-106 0 -165.5 -57.5t-59.5 -161.5v-52zM356 903q0 -96 40 -138t136 -42q98 0 137.5 42t39.5 138v39q0 92 -44 135t-133 43q-176 0 -176 -178v-39z" />
<glyph unicode="9" d="M154 795v79q0 184 95 281.5t286 97.5q186 0 281 -98t95 -291v-438q0 -238 -104.5 -344.5t-312.5 -106.5q-35 0 -74 4.5t-76 9.5t-67.5 10t-47.5 9v146q25 -4 61 -10.5t74.5 -11.5t72.5 -8t57 -3q123 0 183 66.5t60 226.5v155q-143 -137 -278 -137q-143 0 -224 90t-81 273 zM328 788q0 -102 44 -153t122 -51q59 0 121.5 40t121.5 93v157q0 231 -202 232q-207 0 -207 -221v-97z" />
<glyph unicode=":" horiz-adv-x="452" d="M113 68v59q0 94 112 94q115 0 115 -94v-59q0 -92 -115 -93q-113 0 -112 93zM113 871v59q0 94 112 94q115 0 115 -94v-59q0 -92 -115 -93q-113 0 -112 93z" />
<glyph unicode=";" horiz-adv-x="452" d="M113 -330l73 312q-72 16 -71 88v59q0 92 110 92q113 0 113 -92v-63q0 -59 -14 -105l-88 -291h-123zM113 871v59q0 94 112 94q115 0 115 -94v-59q0 -92 -115 -93q-113 0 -112 93z" />
<glyph unicode="&#x3c;" d="M164 530v154l737 328v-170l-565 -234l565 -235v-170z" />
<glyph unicode="=" d="M170 369v143h725v-143h-725zM170 719v143h725v-143h-725z" />
<glyph unicode="&#x3e;" d="M164 203v170l565 235l-565 234v170l737 -328v-154z" />
<glyph unicode="?" horiz-adv-x="808" d="M51 1247v144q68 14 141.5 23t126.5 9q205 0 291 -74.5t86 -207.5v-51q0 -92 -41 -175.5t-137 -183.5l-67 -74q-16 -16 -26.5 -31.5t-17 -31.5t-9.5 -39t-3 -53v-92h-166v65q0 49 3.5 83t11.5 60.5t24.5 51t42.5 55.5l119 139q29 33 46.5 60.5t27.5 53.5t14 53.5t4 62.5 v45q0 74 -44 109.5t-169 35.5q-59 0 -132 -12t-126 -25zM203 68v59q0 94 112 94q115 0 115 -94v-59q0 -92 -115 -93q-113 0 -112 93z" />
<glyph unicode="@" horiz-adv-x="1966" d="M154 385v205q0 184 48 336.5t147.5 263t252 172t361.5 61.5q434 0 641.5 -195.5t207.5 -576.5v-102q0 -113 -29.5 -208t-86 -163.5t-137 -107.5t-183.5 -39q-117 0 -181.5 50t-76.5 142q-72 -88 -154.5 -140t-160.5 -52q-115 0 -174.5 67.5t-59.5 194.5q0 12 2 39.5 t4 40.5l37 282q23 168 110 256t224 88q33 0 68 -10t65.5 -26.5t58 -36t48.5 -37.5l10 84h164l-82 -649q-2 -10 -3 -23.5t-1 -17.5q0 -45 23.5 -72t80.5 -27q53 0 100.5 27t83 76t56 115.5t20.5 146.5v102q0 305 -167.5 461t-507.5 156q-301 0 -468 -174t-167 -504v-205 q0 -299 158.5 -453.5t476.5 -154.5h276v-156h-276q-416 0 -612.5 195.5t-196.5 568.5zM745 330q0 -78 30 -111t81 -33q59 0 127 47.5t127 139.5l45 370q-37 45 -91 73t-101 28q-70 0 -118 -50.5t-63 -162.5l-30 -236q-6 -37 -7 -65z" />
<glyph unicode="A" horiz-adv-x="1097" d="M31 0l409 1341h215l412 -1341h-188l-88 311h-494l-88 -311h-178zM340 467h405l-200 715z" />
<glyph unicode="B" horiz-adv-x="1081" d="M154 -12v1370q72 4 160.5 6t199.5 2q221 0 330.5 -91t109.5 -237v-45q0 -102 -45 -178t-143 -119q115 -25 179.5 -104.5t64.5 -200.5v-45q0 -80 -29 -148.5t-87 -117.5t-149.5 -77t-216.5 -28h-84q-37 0 -76.5 2.5t-90 4.5t-123.5 6zM328 139q41 -4 67.5 -6t48 -4 t39.5 -2h45q164 0 236 62.5t72 166.5v43q0 102 -70 156.5t-225 54.5h-213v-471zM328 752h200q125 0 188.5 59t63.5 166v35q0 98 -66.5 151.5t-226.5 53.5q-74 0 -159 -7v-458z" />
<glyph unicode="C" horiz-adv-x="974" d="M143 389v563q0 209 98.5 311.5t338.5 102.5q70 0 142.5 -11.5t139.5 -21.5l-4 -153q-51 10 -127 21t-151 11q-141 0 -202 -56t-61 -191v-586q0 -133 60.5 -189.5t202.5 -56.5q76 0 151.5 11.5t126.5 21.5l4 -158q-68 -10 -140.5 -21.5t-141.5 -11.5q-121 0 -205 26 t-135.5 78t-74 130t-22.5 180z" />
<glyph unicode="D" horiz-adv-x="1169" d="M154 -12v1370q70 4 163 6t211 2q244 0 376 -137t132 -400v-335q0 -250 -130 -384.5t-388 -134.5q-104 0 -186 3.5t-178 9.5zM328 137q119 -12 190 -12q154 0 249 89t95 265v363q0 190 -92 283.5t-252 93.5q-49 0 -96 -1t-94 -4v-1077z" />
<glyph unicode="E" horiz-adv-x="993" d="M154 0v1341h706v-157h-532v-424h491v-156h-491v-446h532v-158h-706z" />
<glyph unicode="F" horiz-adv-x="993" d="M154 0v1341h706v-157h-532v-424h401v-156h-401v-604h-174z" />
<glyph unicode="G" horiz-adv-x="1146" d="M143 389v563q0 217 102.5 315.5t334.5 98.5q41 0 89 -4t95 -11.5t91 -15.5t79 -14l-4 -150q-29 6 -70 13.5t-88 14.5t-97 12.5t-95 5.5q-143 0 -203 -57.5t-60 -188.5v-594q0 -131 59.5 -189.5t203.5 -58.5q51 0 113.5 8t125.5 21v452h-256v164h430v-723 q-86 -27 -195 -51.5t-218 -24.5q-121 0 -205 26t-135.5 78t-74 130t-22.5 180z" />
<glyph unicode="H" horiz-adv-x="1187" d="M154 0v1341h174v-571h532v571h174v-1341h-174v614h-532v-614h-174z" />
<glyph unicode="I" horiz-adv-x="481" d="M154 0v1341h174v-1341h-174z" />
<glyph unicode="J" horiz-adv-x="638" d="M41 -10v145q16 -4 58 -7t81 -3q63 0 97 29.5t34 99.5v1087h174v-1056q0 -158 -73.5 -234t-239.5 -76q-35 0 -76 5.5t-55 9.5z" />
<glyph unicode="K" horiz-adv-x="1126" d="M154 0v1341h174v-647l499 647h195l-514 -649l567 -692h-223l-524 664v-664h-174z" />
<glyph unicode="L" horiz-adv-x="911" d="M154 0v1341h174v-1187h532v-154h-706z" />
<glyph unicode="M" horiz-adv-x="1431" d="M143 0l13 1341h258l303 -1046l301 1046h258l12 -1341h-170l-10 1102l-285 -963h-215l-284 963l-11 -1102h-170z" />
<glyph unicode="N" horiz-adv-x="1191" d="M154 0v1341h278l434 -1132v1132h172v-1341h-270l-442 1133v-1133h-172z" />
<glyph unicode="O" horiz-adv-x="1179" d="M143 416v510q0 100 26 182t79 139.5t138 88t204 30.5t204 -30.5t138 -88t78.5 -139.5t25.5 -182v-510q0 -102 -25.5 -183t-78.5 -138.5t-138 -88.5t-204 -31t-204 31t-138 88.5t-79 138t-26 183.5zM317 397q0 -131 69 -199.5t204 -68.5t203.5 68.5t68.5 199.5v547 q0 129 -67.5 198.5t-204.5 69.5t-205 -68.5t-68 -197.5v-549z" />
<glyph unicode="P" horiz-adv-x="1032" d="M154 0v1356q78 4 160.5 7t193.5 3q246 0 359.5 -98.5t113.5 -274.5v-49q0 -186 -110.5 -292.5t-346.5 -106.5q-45 0 -91 3t-105 13v-561h-174zM328 711q70 -10 110.5 -13.5t77.5 -3.5q291 0 291 258v35q0 115 -71.5 174.5t-231.5 59.5q-68 0 -106 -1t-70 -3v-506z" />
<glyph unicode="Q" horiz-adv-x="1179" d="M143 416v510q0 100 26 182t79 139.5t138 88t204 30.5t204 -30.5t138 -88t78.5 -139.5t25.5 -182v-506q0 -141 -43 -231.5t-135 -141.5l219 -59l4 -162h-39l-401 151q-12 -2 -25 -2h-24q-121 0 -206 31t-138 88.5t-79 138t-26 183.5zM317 397q0 -131 69 -199.5t204 -68.5 q272 0 272 279v536q0 129 -67.5 198.5t-204.5 69.5t-205 -68.5t-68 -197.5v-549z" />
<glyph unicode="R" horiz-adv-x="1122" d="M154 0v1358q86 4 176 6t178 2q125 0 214 -25.5t145.5 -71.5t83 -111.5t26.5 -147.5v-54q0 -55 -17.5 -108t-49 -100.5t-78 -84t-103.5 -57.5l342 -606h-194l-324 573h-127q-43 0 -98 5v-578h-174zM328 733q70 -4 108.5 -6t73.5 -2q158 0 225.5 62.5t67.5 173.5v38 q0 111 -68.5 166.5t-230.5 55.5q-35 0 -85 -1t-91 -3v-484z" />
<glyph unicode="S" horiz-adv-x="933" d="M92 983v23q0 174 93.5 267t306.5 93q53 0 131.5 -9t154.5 -24l-4 -153q-72 14 -146.5 23t-135.5 9q-123 0 -174.5 -48t-51.5 -142v-53q0 -37 6.5 -62.5t24.5 -46t51 -36t84 -31.5l191 -64q68 -23 115.5 -52.5t77.5 -71.5t43 -97t13 -131v-39q0 -88 -23.5 -155.5 t-77.5 -113.5t-140 -70t-209 -24q-49 0 -129 10.5t-170 30.5l4 158q84 -20 161 -30.5t130 -10.5q158 0 219 48t61 143v67q0 72 -30.5 110t-112.5 64l-211 70q-72 23 -120 51.5t-76.5 69.5t-42 96t-13.5 131z" />
<glyph unicode="T" horiz-adv-x="1054" d="M51 1184v157h953v-157h-390v-1184h-174v1184h-389z" />
<glyph unicode="U" horiz-adv-x="1179" d="M154 420v921h174v-944q0 -135 68.5 -201.5t193.5 -66.5t193.5 66.5t68.5 201.5v944h174v-917q0 -217 -108.5 -333t-327.5 -116q-213 0 -324.5 111t-111.5 334z" />
<glyph unicode="V" horiz-adv-x="1085" d="M31 1341h184l328 -1173l327 1173h185l-398 -1341h-229z" />
<glyph unicode="W" horiz-adv-x="1736" d="M51 1341h185l245 -1151l269 1151h237l270 -1151l244 1151h185l-306 -1341h-233l-279 1143l-276 -1143h-234z" />
<glyph unicode="X" horiz-adv-x="1071" d="M31 0l393 692l-369 649h209l281 -512l280 512h193l-365 -653l387 -688h-211l-299 549l-299 -549h-200z" />
<glyph unicode="Y" horiz-adv-x="1013" d="M31 1341h198l279 -696l280 696h195l-389 -880v-461h-174v461z" />
<glyph unicode="Z" horiz-adv-x="1013" d="M92 0v137l606 1047h-594v157h797v-137l-606 -1046h606v-158h-809z" />
<glyph unicode="[" d="M322 -238v1844h419v-144h-245v-1556h245v-144h-419z" />
<glyph unicode="\" d="M236 1399h174l419 -1399h-174z" />
<glyph unicode="]" d="M322 -94h245v1556h-245v144h419v-1844h-419v144z" />
<glyph unicode="^" horiz-adv-x="1013" d="M133 825l297 574h154l297 -574h-170l-205 412l-203 -412h-170z" />
<glyph unicode="_" horiz-adv-x="1249" d="M133 -246h983v-133h-983v133z" />
<glyph unicode="`" horiz-adv-x="788" d="M219 1403h174l156 -285h-135z" />
<glyph unicode="a" horiz-adv-x="960" d="M113 281v57q0 61 21.5 114.5t61.5 91.5t97 60.5t129 22.5q45 0 104.5 -8.5t106.5 -18.5v109q0 92 -40 128.5t-124 36.5q-31 0 -67.5 -3t-73.5 -8t-73 -10t-62 -9v149q68 10 145.5 20.5t130.5 10.5q176 0 257 -78t81 -252v-694h-166v160q-121 -184 -268 -185 q-117 0 -188.5 81t-71.5 225zM289 293q0 -78 35 -120t88 -42t112.5 47t108.5 137v158q-41 8 -88 11t-80 3q-86 0 -131 -46t-45 -126v-22z" />
<glyph unicode="b" horiz-adv-x="1005" d="M154 348v1051h174v-533q53 76 121.5 117t146.5 41q127 0 196.5 -87t69.5 -261v-324q0 -186 -86 -281.5t-274 -95.5q-184 0 -266 93.5t-82 279.5zM328 328q0 -102 47 -154.5t127 -52.5q186 0 186 211v319q0 123 -37 170t-96 47t-120.5 -45t-106.5 -123v-372z" />
<glyph unicode="c" horiz-adv-x="827" d="M143 348v303q0 180 89.5 276.5t281.5 96.5q53 0 93 -5t108 -15l-4 -154q-53 10 -95.5 15t-101.5 5q-98 0 -147.5 -53t-49.5 -151v-330q0 -104 52.5 -155.5t144.5 -51.5q59 0 101 5t96 16l4 -154q-68 -10 -108 -15.5t-93 -5.5q-193 0 -282 95.5t-89 277.5z" />
<glyph unicode="d" horiz-adv-x="1005" d="M143 317v365q0 160 74 251t215 91q66 0 132.5 -34t113.5 -68v477h174v-1399h-166v162q-59 -92 -130 -139.5t-150 -47.5q-127 0 -195 86t-68 256zM317 340q0 -117 36 -163t93 -46q59 0 121 47t111 137v451q-43 45 -101.5 73.5t-105.5 28.5q-72 0 -113 -50t-41 -161v-317z " />
<glyph unicode="e" horiz-adv-x="956" d="M143 336v321q0 178 85 272.5t264 94.5q174 0 263 -93t89 -274v-211h-527v-120q0 -104 49.5 -150.5t157.5 -46.5q33 0 72 4t79 9t75.5 11.5t62.5 12.5l-8 -154q-68 -12 -144.5 -24.5t-136.5 -12.5q-207 0 -294 89.5t-87 271.5zM317 586h353v92q0 102 -49.5 151.5 t-128.5 49.5q-78 0 -126.5 -49.5t-48.5 -145.5v-98z" />
<glyph unicode="f" horiz-adv-x="681" d="M72 856v143h143v105q2 162 81 240.5t226 78.5q37 0 73 -5t56 -9v-139q-29 4 -59.5 7t-67.5 3q-59 0 -97 -38t-38 -112v-131h184v-143h-184v-856h-174v856h-143z" />
<glyph unicode="g" horiz-adv-x="995" d="M82 207v41q0 94 92 164q-35 41 -50 101t-15 146v46q0 141 87 230t265 89q47 0 88 -7t76 -20l319 4v-153l-174 6q23 -33 32 -74t9 -82v-45q0 -72 -22.5 -133t-67.5 -105t-109.5 -68.5t-150.5 -24.5q-106 0 -174 20q-45 -39 -45 -82v-12q0 -29 20.5 -47.5t79.5 -22.5 l305 -22q94 -8 152.5 -69.5t58.5 -158.5v-75q0 -61 -17.5 -109.5t-63.5 -80.5t-127 -49t-210 -17q-59 0 -142 10t-157 26l-6 158q66 -23 151 -36t154 -13q80 0 129 7t76 22.5t35 41t8 64.5v19q0 96 -98 102l-307 20q-98 6 -149.5 56.5t-51.5 132.5zM283 641q0 -55 7 -89 t25.5 -52.5t50 -25.5t83.5 -7q96 0 142 45t46 129v61q0 47 -7 84t-18 66q-23 10 -64.5 18.5t-86.5 8.5q-86 0 -132 -43t-46 -127v-68z" />
<glyph unicode="h" horiz-adv-x="1005" d="M154 0v1399h174v-533q53 76 118.5 117t143.5 41q131 0 201.5 -88t70.5 -254v-682h-174v657q0 113 -37 159t-96 46t-120.5 -45t-106.5 -123v-694h-174z" />
<glyph unicode="i" horiz-adv-x="501" d="M137 1270v59q0 94 113 94q115 0 115 -94v-59q0 -92 -115 -92q-113 0 -113 92zM164 0v999h174v-999h-174z" />
<glyph unicode="j" horiz-adv-x="481" d="M-109 -246q16 -2 54.5 -5t77.5 -3q131 0 131 145v1108h174v-1097q0 -154 -75 -229.5t-239 -75.5q-35 0 -71.5 4t-51.5 8v145zM127 1270v59q0 94 113 94q115 0 114 -94v-59q0 -92 -114 -92q-113 0 -113 92z" />
<glyph unicode="k" horiz-adv-x="925" d="M154 0v1399h174v-838l327 438h195l-340 -438l364 -561h-208l-338 537v-537h-174z" />
<glyph unicode="l" horiz-adv-x="481" d="M154 0v1399h174v-1399h-174z" />
<glyph unicode="m" horiz-adv-x="1519" d="M154 0v999h163v-149q53 84 122 129t147 45q188 0 245 -188q55 92 126 140t153 48q129 0 197.5 -88t68.5 -254v-682h-174v657q0 111 -34.5 158t-92.5 47q-57 0 -117.5 -45t-105.5 -123v-694h-174v657q0 111 -35 158t-92 47t-117.5 -45t-105.5 -123v-694h-174z" />
<glyph unicode="n" horiz-adv-x="1005" d="M154 0v999h163v-149q53 84 123 129t150 45q131 0 201.5 -88t70.5 -254v-682h-174v657q0 111 -37 158t-96 47t-120.5 -45t-106.5 -123v-694h-174z" />
<glyph unicode="o" horiz-adv-x="1007" d="M143 348v303q0 174 86 273.5t275 99.5q188 0 274 -99.5t86 -273.5v-303q0 -174 -86 -273.5t-274 -99.5t-274.5 99.5t-86.5 273.5zM317 334q0 -104 49.5 -158.5t137.5 -54.5t137 54t49 159v334q0 104 -49 157.5t-137 53.5t-137.5 -54.5t-49.5 -158.5v-332z" />
<glyph unicode="p" horiz-adv-x="1003" d="M154 -379v1378h163v-145q53 82 122 126t149 44q129 0 200.5 -86t71.5 -256v-365q0 -162 -83 -252t-224 -90q-57 0 -118.5 22.5t-106.5 49.5v-426h-174zM328 203q45 -35 96 -54.5t94 -19.5q168 0 168 213v315q0 117 -37 164t-96 47t-119.5 -43t-105.5 -120v-502z" />
<glyph unicode="q" horiz-adv-x="1005" d="M143 317v365q0 160 74 251t215 91q70 0 138.5 -37t115.5 -72v84h166v-1378h-174v529q-59 -86 -127 -130.5t-145 -44.5q-127 0 -195 86t-68 256zM317 340q0 -117 36 -163t93 -46q59 0 121 47t111 137v451q-43 45 -101.5 73.5t-105.5 28.5q-72 0 -113 -50t-41 -161v-317z " />
<glyph unicode="r" horiz-adv-x="706" d="M154 0v999h163v-149q53 84 123 129t150 45q29 0 45 -4v-197q-16 4 -33.5 5t-46.5 1q-66 0 -124 -33.5t-103 -109.5v-686h-174z" />
<glyph unicode="s" horiz-adv-x="796" d="M92 713v26q0 141 79 213t267 72q47 0 97.5 -5t117.5 -20l-4 -147q-109 25 -203 25q-109 0 -145.5 -30t-36.5 -91v-17q0 -41 20.5 -63.5t73.5 -44.5l193 -80q90 -37 137 -100.5t47 -139.5v-49q0 -141 -81 -214t-275 -73q-117 0 -260 33l4 154q131 -33 256 -33 q111 0 147.5 27.5t36.5 89.5v28q0 47 -20.5 78t-67.5 49l-199 78q-92 35 -138 95.5t-46 138.5z" />
<glyph unicode="t" horiz-adv-x="702" d="M31 856v143h143l33 267h141v-267h266v-143h-266v-586q0 -78 33 -111.5t98 -33.5q45 0 93.5 5t78.5 11v-145q-35 -8 -75.5 -14.5t-88.5 -6.5q-162 0 -237.5 72t-75.5 238v571h-143z" />
<glyph unicode="u" horiz-adv-x="1015" d="M154 317v682h174v-651q0 -113 36.5 -162t96.5 -49q59 0 119.5 44t107.5 122v696h174v-999h-164v143q-55 -82 -123.5 -125t-148.5 -43q-125 0 -198.5 84t-73.5 258z" />
<glyph unicode="v" horiz-adv-x="905" d="M31 999h184l238 -872l237 872h184l-309 -999h-227z" />
<glyph unicode="w" horiz-adv-x="1409" d="M51 999h185l155 -845l201 845h225l199 -845l158 845h184l-225 -999h-220l-208 848l-211 -848h-220z" />
<glyph unicode="x" horiz-adv-x="944" d="M51 0l309 516l-288 483h198l201 -356l201 356h198l-288 -483l311 -516h-199l-223 389l-221 -389h-199z" />
<glyph unicode="y" horiz-adv-x="913" d="M31 999h190l215 -874l266 874h181l-459 -1378h-174l131 379h-66z" />
<glyph unicode="z" horiz-adv-x="872" d="M92 0v133l459 713h-449v153h658v-133l-457 -712h457v-154h-668z" />
<glyph unicode="{" d="M242 612v144h51q74 0 103.5 33.5t29.5 130.5v370q0 96 15.5 158.5t55.5 98.5t107.5 50.5t171.5 14.5v-144q-53 0 -87 -6t-54.5 -22.5t-27.5 -45t-7 -75.5v-399q0 -104 -28.5 -159.5t-90.5 -76.5q63 -23 91 -77t28 -158v-367q0 -57 6 -93t24.5 -55.5t53.5 -26.5t92 -7 v-144q-102 0 -169.5 15.5t-107.5 53.5t-56.5 101.5t-16.5 161.5v361q0 94 -29.5 128.5t-103.5 34.5h-51z" />
<glyph unicode="|" d="M444 -229v1863h174v-1863h-174z" />
<glyph unicode="}" d="M287 -100q57 0 92 7t53.5 26.5t24.5 55.5t6 93v367q0 104 27.5 158.5t91.5 76.5q-61 20 -90 75.5t-29 160.5v399q0 47 -7 75.5t-27.5 45t-54.5 22.5t-87 6v144q104 0 171.5 -14.5t107.5 -50.5t55.5 -98.5t15.5 -158.5v-370q0 -96 29.5 -130t103.5 -34h51v-144h-51 q-74 0 -103.5 -34.5t-29.5 -128.5v-361q0 -98 -16.5 -161.5t-56.5 -101.5t-107.5 -53.5t-169.5 -15.5v144z" />
<glyph unicode="~" d="M170 520v144q25 16 57 28q29 10 66 19.5t82 9.5q55 0 92 -9.5t70.5 -19.5t69.5 -19t87 -9q29 0 64 7t65 17q37 10 72 27v-144q-25 -16 -57 -28q-29 -10 -66 -19.5t-82 -9.5q-55 0 -92 9t-69.5 19.5t-69.5 19.5t-88 9q-29 0 -64 -8t-65 -18q-37 -10 -72 -25z" />
<glyph unicode="&#xa1;" horiz-adv-x="432" d="M102 917q0 -94 113 -94q115 0 115 94v59q0 92 -115 93q-113 0 -113 -93v-59zM119 -379h194l-14 1013h-166z" />
<glyph unicode="&#xa2;" d="M246 348v303q0 154 64.5 246t201.5 117v166h154v-158q35 -2 67.5 -6t83.5 -12l-4 -154q-53 10 -95 15t-102 5q-98 0 -147 -53t-49 -151v-330q0 -104 52 -155.5t144 -51.5q59 0 101.5 5t95.5 16l4 -154q-51 -8 -84 -12t-67 -7v-157h-154v166q-137 23 -201.5 115t-64.5 247 z" />
<glyph unicode="&#xa3;" d="M145 625v143h144v168q0 164 83 241.5t259 77.5q47 0 100 -9t94 -21v-140q-31 10 -78 18.5t-90 8.5q-111 0 -152.5 -40t-41.5 -126v-178h194v-143h-194v-248q0 -88 -21.5 -140.5t-62.5 -84.5h539v-152h-711v123q43 53 62.5 105.5t19.5 111.5v285h-144z" />
<glyph unicode="&#xa4;" d="M92 305l127 125q-23 41 -35 86t-12 105v41q0 53 9 95t30 83l-119 116l115 115l110 -113q88 53 211 54q125 0 215 -58l115 117l115 -115l-125 -122q35 -72 35 -172v-41q0 -57 -10.5 -100.5t-32.5 -84.5l133 -131l-115 -115l-127 129q-84 -49 -203 -49q-117 0 -198 45 l-123 -125zM340 621q0 -86 43 -144.5t145 -58.5t144.5 58.5t42.5 144.5v41q0 84 -42 142t-145 58q-102 0 -145 -57t-43 -143v-41z" />
<glyph unicode="&#xa5;" d="M55 1231h195l282 -658l281 658h195l-330 -701h133v-143h-193v-84h193v-143h-193v-160h-174v160h-194v143h194v84h-194v143h135z" />
<glyph unicode="&#xa6;" d="M444 -236v805h174v-805h-174zM444 836v804h174v-804h-174z" />
<glyph unicode="&#xa7;" horiz-adv-x="825" d="M31 549v49q0 53 15 99t42 81t63.5 56.5t79.5 27.5q-61 23 -100 80t-39 139v58q0 141 77 212.5t265 71.5q49 0 97.5 -5t115.5 -19l-4 -146q-53 12 -102 18.5t-99 6.5q-100 0 -136 -29.5t-36 -93.5v-68q0 -43 18.5 -68.5t65.5 -43.5l219 -84q119 -45 170.5 -106.5 t51.5 -139.5v-63q0 -92 -50.5 -161t-142.5 -87q59 -23 95 -79t36 -134v-78q0 -143 -82 -215t-276 -72q-70 0 -127.5 8.5t-124.5 22.5l4 154q53 -12 112.5 -21.5t135.5 -9.5q106 0 143 26.5t37 90.5v67q0 53 -18.5 84t-65.5 47l-219 76q-121 41 -171 98.5t-50 149.5zM209 551 q0 -35 25.5 -59.5t99.5 -49.5l94 -30q94 4 141 50t47 116v47q0 90 -124 127l-76 22q-102 -2 -154.5 -51t-52.5 -121v-51z" />
<glyph unicode="&#xa8;" horiz-adv-x="882" d="M154 1272v59q0 47 28.5 69.5t81.5 22.5q113 0 113 -92v-59q0 -90 -113 -90q-53 0 -81.5 23.5t-28.5 66.5zM506 1272v59q0 92 110 92q113 0 113 -92v-59q0 -90 -113 -90q-111 0 -110 90z" />
<glyph unicode="&#xa9;" horiz-adv-x="1323" d="M143 403v424q0 94 29 173t92.5 137.5t160.5 91.5t237 33q137 0 235 -33t161.5 -91.5t92.5 -137t29 -173.5v-424q0 -94 -29 -172.5t-92.5 -137t-161.5 -91.5t-235 -33q-139 0 -236.5 33t-161 91.5t-92.5 137t-29 172.5zM289 381q0 -123 96 -200t277 -77q180 0 276 77 t96 200v471q0 123 -96 198.5t-276 75.5t-276.5 -76.5t-96.5 -199.5v-469zM408 567v115q0 147 70.5 224t211.5 77q39 0 81 -4t79 -10l-4 -135q-39 4 -75 7t-81 3q-53 0 -85 -38t-32 -124v-113q0 -84 32 -125t85 -41q45 0 81 3.5t75 7.5l4 -135q-53 -8 -87 -11.5t-73 -3.5 q-283 0 -282 303z" />
<glyph unicode="&#xaa;" d="M184 0v150h695v-150h-695zM184 713v57q0 53 20.5 100.5t60.5 83t97.5 56t131.5 20.5q45 0 104 -8t107 -18v53q0 92 -40 129t-124 37q-31 0 -68 -3t-74 -8.5t-72.5 -10.5t-62.5 -9v143q68 10 145.5 20.5t131.5 10.5q176 0 257 -78t81 -252v-573h-166v160 q-121 -184 -269 -185q-119 0 -189.5 74t-70.5 201zM360 725q0 -61 35 -96t88 -35t112.5 35t109.5 121v127q-41 8 -88.5 11t-79.5 3q-86 0 -131.5 -39t-45.5 -104v-23z" />
<glyph unicode="&#xab;" horiz-adv-x="999" d="M133 651l205 348h180l-190 -348l190 -348h-180zM481 651l205 348h180l-190 -348l190 -348h-180z" />
<glyph unicode="&#xac;" d="M162 543v143h739v-455h-156v312h-583z" />
<glyph unicode="&#xad;" horiz-adv-x="716" d="M133 539v133h451v-133h-451z" />
<glyph unicode="&#xae;" horiz-adv-x="1097" d="M154 981v70q0 172 90 272t305 100t305 -100t90 -272v-70q0 -172 -90 -272.5t-305 -100.5t-305 100.5t-90 272.5zM258 963q0 -127 66.5 -192.5t224.5 -65.5t224.5 65.5t66.5 192.5v108q0 129 -66.5 192.5t-224.5 63.5t-224.5 -65.5t-66.5 -192.5v-106zM399 780v477 q41 2 83 3.5t69 1.5q104 0 145 -40t41 -104v-22q0 -43 -25.5 -77t-68.5 -52l111 -187h-103l-98 172h-66v-172h-88zM487 1036q23 -2 41 -2h33q47 0 66.5 17.5t19.5 46.5v18q0 33 -20.5 48.5t-69.5 15.5q-10 0 -33.5 -1t-36.5 -3v-140z" />
<glyph unicode="&#xaf;" horiz-adv-x="788" d="M174 1241v154h440v-154h-440z" />
<glyph unicode="&#xb0;" horiz-adv-x="1228" d="M158 1024v45q0 174 85 264t255 90t254 -90t84 -264v-45q0 -174 -84 -264t-254 -90t-255 90t-85 264zM324 1024q0 -109 45 -159t129 -50q82 0 127 50t45 159v45q0 109 -44 159t-128 50t-129 -50t-45 -159v-45z" />
<glyph unicode="&#xb1;" d="M166 0v143h729v-143h-729zM168 543v145h287v311h155v-311h287v-145h-287v-312h-155v312h-287z" />
<glyph unicode="&#xb2;" horiz-adv-x="798" d="M137 371v123l303 348q20 23 32.5 40t20 33.5t9.5 34t2 39.5v33q0 49 -33 72.5t-115 23.5q-47 0 -103 -10t-97 -25v134q51 14 105 23t95 9q162 0 232.5 -57t70.5 -164v-37q0 -70 -26.5 -130t-102.5 -142l-198 -213h330v-135h-525z" />
<glyph unicode="&#xb3;" horiz-adv-x="798" d="M152 373v125q41 -6 99 -11.5t103 -5.5q68 0 99.5 31t31.5 84v27q0 66 -34.5 98.5t-120.5 32.5h-119v120h119q78 0 108.5 31t30.5 96v27q0 51 -28.5 73.5t-94.5 22.5q-45 0 -99 -7t-95 -13v127q51 8 102 13t92 5q143 0 212 -59.5t69 -161.5v-14q0 -68 -29 -113t-94 -76 q70 -29 106.5 -83t36.5 -124v-14q0 -111 -74.5 -180.5t-222.5 -69.5q-39 0 -93 5.5t-105 13.5z" />
<glyph unicode="&#xb4;" horiz-adv-x="636" d="M154 1118l155 285h174l-194 -285h-135z" />
<glyph unicode="&#xb5;" d="M178 -379v1378h174v-651q0 -113 37 -162t96 -49t120 44t108 122v696h174v-999h-164v143q-55 -82 -120.5 -125t-131.5 -43q-74 0 -119 29v-383h-174z" />
<glyph unicode="&#xb6;" horiz-adv-x="1118" d="M41 887v260q0 117 62.5 184.5t191.5 67.5h278v-1778h-176v1020h-102q-123 0 -188.5 61.5t-65.5 184.5zM209 938q0 -82 24.5 -112.5t81.5 -30.5h82v454h-82q-57 0 -81.5 -29.5t-24.5 -113.5v-168zM788 -379v1778h177v-1778h-177z" />
<glyph unicode="&#xb7;" horiz-adv-x="452" d="M113 480v59q0 94 112 94q115 0 115 -94v-59q0 -92 -115 -93q-113 0 -112 93z" />
<glyph unicode="&#xb8;" horiz-adv-x="612" d="M94 -285q23 -4 40.5 -6t33.5 -2q45 0 64.5 13.5t19.5 35.5v27q-2 31 -18.5 42t-51.5 11h-61v43l55 178h129l-43 -141h21q43 0 74.5 -36t31.5 -95v-31q0 -158 -194 -157q-25 0 -48.5 3t-52.5 7v108z" />
<glyph unicode="&#xb9;" horiz-adv-x="798" d="M119 1135l262 98h133v-727h164v-135h-516v135h188v571l-200 -80z" />
<glyph unicode="&#xba;" d="M172 813v180q0 178 87 275.5t273 97.5t273.5 -97.5t87.5 -275.5v-180q0 -186 -91 -279.5t-270 -93.5q-176 0 -268 93.5t-92 279.5zM182 0v150h701v-150h-701zM346 799q0 -104 49 -158.5t137 -54.5t137.5 54t49.5 159v211q0 104 -49 157.5t-138 53.5q-88 0 -137 -54.5 t-49 -158.5v-209z" />
<glyph unicode="&#xbb;" horiz-adv-x="999" d="M133 303l191 348l-191 348h180l205 -348l-205 -348h-180zM481 303l191 348l-191 348h181l204 -348l-204 -348h-181z" />
<glyph unicode="&#xbc;" horiz-adv-x="2086" d="M119 1135l262 98h133v-727h164v-135h-516v135h188v571l-200 -80zM637 0l625 1231h170l-625 -1231h-170zM1356 270l213 592h147l-190 -547h223v271h156v-271h114v-131h-114v-184h-158v184h-350z" />
<glyph unicode="&#xbd;" horiz-adv-x="2070" d="M119 1135l262 98h133v-727h164v-135h-516v135h188v571l-200 -80zM637 0l625 1231h170l-625 -1231h-170zM1409 0v123l303 348q20 23 32.5 40t20 33.5t9.5 34t2 39.5v33q0 49 -33 73t-115 24q-47 0 -103.5 -10.5t-97.5 -24.5v133q51 14 105.5 23.5t95.5 9.5 q162 0 232.5 -57.5t70.5 -164.5v-36q0 -70 -26.5 -130.5t-102.5 -142.5l-198 -213h329v-135h-524z" />
<glyph unicode="&#xbe;" horiz-adv-x="2048" d="M152 373v125q41 -6 99 -11.5t103 -5.5q68 0 99.5 31t31.5 84v27q0 66 -34.5 98.5t-120.5 32.5h-119v120h119q78 0 108.5 31t30.5 96v27q0 51 -28.5 73.5t-94.5 22.5q-45 0 -99 -7t-95 -13v127q51 8 102 13t92 5q143 0 212 -59.5t69 -161.5v-14q0 -68 -29 -113t-94 -76 q70 -29 106.5 -83t36.5 -124v-14q0 -111 -74.5 -180.5t-222.5 -69.5q-39 0 -93 5.5t-105 13.5zM598 0l625 1231h170l-625 -1231h-170zM1317 270l213 592h147l-190 -547h223v271h156v-271h114v-131h-114v-184h-158v184h-350z" />
<glyph unicode="&#xbf;" horiz-adv-x="808" d="M113 -70q0 92 41 175.5t137 183.5l67 74q16 16 26.5 31.5t17 31.5t9.5 39t3 53v92h166v-65q0 -49 -3.5 -83t-11.5 -60.5t-24.5 -51t-42.5 -55.5l-119 -139q-29 -33 -46.5 -60.5t-27.5 -53.5t-14 -53.5t-4 -62.5v-45q0 -74 44 -109.5t169 -35.5q59 0 132 12t126 25v-144 q-68 -14 -141.5 -23t-126.5 -9q-205 0 -291 74.5t-86 207.5v51zM379 893v59q0 92 115 93q113 0 112 -93v-59q0 -94 -112 -94q-115 0 -115 94z" />
<glyph unicode="&#xc0;" horiz-adv-x="1097" d="M31 0l409 1341h215l412 -1341h-188l-88 311h-494l-88 -311h-178zM340 467h405l-200 715zM340 1698h182l135 -244h-143z" />
<glyph unicode="&#xc1;" horiz-adv-x="1097" d="M31 0l409 1341h215l412 -1341h-188l-88 311h-494l-88 -311h-178zM340 467h405l-200 715zM420 1454l135 244h182l-174 -244h-143z" />
<glyph unicode="&#xc2;" horiz-adv-x="1097" d="M31 0l409 1341h215l412 -1341h-188l-88 311h-494l-88 -311h-178zM266 1456v139l287 125l287 -125v-139l-287 100zM340 467h405l-200 715z" />
<glyph unicode="&#xc3;" horiz-adv-x="1097" d="M31 0l409 1341h215l412 -1341h-188l-88 311h-494l-88 -311h-178zM266 1454v143q23 16 47 31q23 10 52.5 20.5t64.5 10.5q41 0 75 -8.5t62.5 -17.5t56 -17t56.5 -8q25 0 53.5 7t50.5 17q27 10 56 27v-143q-23 -18 -47 -31q-23 -12 -52.5 -21.5t-64.5 -9.5t-65.5 8 t-61.5 17.5t-61.5 17.5t-61.5 8q-27 0 -54.5 -8t-49.5 -18q-27 -10 -56 -25zM340 467h405l-200 715z" />
<glyph unicode="&#xc4;" horiz-adv-x="1097" d="M31 0l409 1341h215l412 -1341h-188l-88 311h-494l-88 -311h-178zM258 1544v60q0 47 28.5 69.5t81.5 22.5q113 0 113 -92v-60q0 -90 -113 -90q-53 0 -81.5 23.5t-28.5 66.5zM340 467h405l-200 715zM610 1544v60q0 92 110 92q113 0 113 -92v-60q0 -90 -113 -90 q-111 0 -110 90z" />
<glyph unicode="&#xc5;" horiz-adv-x="1097" d="M31 0l383 1255q-47 23 -74 68t-27 111q0 104 63.5 154t172.5 50q106 0 170.5 -50t64.5 -154q0 -68 -27.5 -113t-74.5 -68l385 -1253h-188l-88 311h-494l-88 -311h-178zM340 467h405l-200 715zM446 1434q0 -41 23 -67t80 -26t79.5 26t22.5 67t-22.5 66.5t-79.5 25.5 t-80 -25.5t-23 -66.5z" />
<glyph unicode="&#xc6;" horiz-adv-x="1585" d="M31 0l600 1341h821v-157h-532v-424h491v-156h-491v-446h532v-158h-707v311h-397l-135 -311h-182zM416 467h329v756z" />
<glyph unicode="&#xc7;" horiz-adv-x="974" d="M143 389v563q0 209 98.5 311.5t338.5 102.5q70 0 142.5 -11.5t139.5 -21.5l-4 -153q-51 10 -127 21t-151 11q-141 0 -202 -56t-61 -191v-586q0 -133 60.5 -189.5t202.5 -56.5q76 0 151.5 11.5t126.5 21.5l4 -158q-61 -10 -126.5 -19t-129.5 -14l-18 -59h20q43 0 75 -36 t32 -95v-31q0 -158 -195 -157q-25 0 -48 3t-52 7v108q23 -4 40 -6t34 -2q45 0 64.5 13.5t19.5 35.5v27q-2 31 -18.5 42t-51.5 11h-62v43l31 103q-184 20 -259 122.5t-75 284.5z" />
<glyph unicode="&#xc8;" horiz-adv-x="993" d="M154 0v1341h706v-157h-532v-424h491v-156h-491v-446h532v-158h-706zM328 1698h182l135 -244h-143z" />
<glyph unicode="&#xc9;" horiz-adv-x="993" d="M154 0v1341h706v-157h-532v-424h491v-156h-491v-446h532v-158h-706zM400 1454l135 244h182l-174 -244h-143z" />
<glyph unicode="&#xca;" horiz-adv-x="993" d="M154 0v1341h706v-157h-532v-424h491v-156h-491v-446h532v-158h-706zM254 1456v139l287 125l287 -125v-139l-287 100z" />
<glyph unicode="&#xcb;" horiz-adv-x="993" d="M154 0v1341h706v-157h-532v-424h491v-156h-491v-446h532v-158h-706zM211 1544v60q0 47 28.5 69.5t81.5 22.5q113 0 113 -92v-60q0 -90 -113 -90q-53 0 -81.5 23.5t-28.5 66.5zM563 1544v60q0 92 110 92q113 0 113 -92v-60q0 -90 -113 -90q-111 0 -110 90z" />
<glyph unicode="&#xcc;" horiz-adv-x="481" d="M37 1698h182l135 -244h-143zM154 0v1341h174v-1341h-174z" />
<glyph unicode="&#xcd;" horiz-adv-x="481" d="M115 1454l135 244h182l-174 -244h-143zM154 0v1341h174v-1341h-174z" />
<glyph unicode="&#xce;" horiz-adv-x="481" d="M-47 1456v139l287 125l287 -125v-139l-287 100zM154 0v1341h174v-1341h-174z" />
<glyph unicode="&#xcf;" horiz-adv-x="481" d="M-51 1544v60q0 47 28.5 69.5t81.5 22.5q113 0 113 -92v-60q0 -90 -113 -90q-53 0 -81.5 23.5t-28.5 66.5zM154 0v1341h174v-1341h-174zM301 1544v60q0 92 110 92q113 0 113 -92v-60q0 -90 -113 -90q-111 0 -110 90z" />
<glyph unicode="&#xd0;" horiz-adv-x="1169" d="M10 621v143h144v594q70 4 163 6t211 2q244 0 376 -137t132 -400v-335q0 -250 -130 -384.5t-388 -134.5q-104 0 -186 3.5t-178 9.5v633h-144zM328 137q119 -12 190 -12q154 0 249 89t95 265v363q0 190 -92 283.5t-252 93.5q-49 0 -96 -1t-94 -4v-450h276v-143h-276v-484z " />
<glyph unicode="&#xd1;" horiz-adv-x="1191" d="M154 0v1341h278l434 -1132v1132h172v-1341h-270l-442 1133v-1133h-172zM356 1454v143q23 16 47 31q23 10 52.5 20.5t64.5 10.5q41 0 75 -8.5t62.5 -17.5t56 -17t56.5 -8q25 0 53.5 7t50.5 17q27 10 56 27v-143q-23 -18 -47 -31q-23 -12 -52.5 -21.5t-64.5 -9.5t-65.5 8 t-61.5 17.5t-61.5 17.5t-61.5 8q-27 0 -54.5 -8t-49.5 -18q-27 -10 -56 -25z" />
<glyph unicode="&#xd2;" horiz-adv-x="1179" d="M143 416v510q0 100 26 182t79 139.5t138 88t204 30.5t204 -30.5t138 -88t78.5 -139.5t25.5 -182v-510q0 -102 -25.5 -183t-78.5 -138.5t-138 -88.5t-204 -31t-204 31t-138 88.5t-79 138t-26 183.5zM317 397q0 -131 69 -199.5t204 -68.5t203.5 68.5t68.5 199.5v547 q0 129 -67.5 198.5t-204.5 69.5t-205 -68.5t-68 -197.5v-549zM381 1698h182l135 -244h-143z" />
<glyph unicode="&#xd3;" horiz-adv-x="1179" d="M143 416v510q0 100 26 182t79 139.5t138 88t204 30.5t204 -30.5t138 -88t78.5 -139.5t25.5 -182v-510q0 -102 -25.5 -183t-78.5 -138.5t-138 -88.5t-204 -31t-204 31t-138 88.5t-79 138t-26 183.5zM317 397q0 -131 69 -199.5t204 -68.5t203.5 68.5t68.5 199.5v547 q0 129 -67.5 198.5t-204.5 69.5t-205 -68.5t-68 -197.5v-549zM461 1454l135 244h182l-174 -244h-143z" />
<glyph unicode="&#xd4;" horiz-adv-x="1179" d="M143 416v510q0 100 26 182t79 139.5t138 88t204 30.5t204 -30.5t138 -88t78.5 -139.5t25.5 -182v-510q0 -102 -25.5 -183t-78.5 -138.5t-138 -88.5t-204 -31t-204 31t-138 88.5t-79 138t-26 183.5zM303 1456v139l287 125l287 -125v-139l-287 100zM317 397 q0 -131 69 -199.5t204 -68.5t203.5 68.5t68.5 199.5v547q0 129 -67.5 198.5t-204.5 69.5t-205 -68.5t-68 -197.5v-549z" />
<glyph unicode="&#xd5;" horiz-adv-x="1179" d="M143 416v510q0 100 26 182t79 139.5t138 88t204 30.5t204 -30.5t138 -88t78.5 -139.5t25.5 -182v-510q0 -102 -25.5 -183t-78.5 -138.5t-138 -88.5t-204 -31t-204 31t-138 88.5t-79 138t-26 183.5zM303 1454v143q23 16 47 31q23 10 52.5 20.5t64.5 10.5q41 0 75 -8.5 t62.5 -17.5t56 -17t56.5 -8q25 0 53.5 7t50.5 17q27 10 56 27v-143q-23 -18 -47 -31q-23 -12 -52.5 -21.5t-64.5 -9.5t-65.5 8t-61.5 17.5t-61.5 17.5t-61.5 8q-27 0 -54.5 -8t-49.5 -18q-27 -10 -56 -25zM317 397q0 -131 69 -199.5t204 -68.5t203.5 68.5t68.5 199.5v547 q0 129 -67.5 198.5t-204.5 69.5t-205 -68.5t-68 -197.5v-549z" />
<glyph unicode="&#xd6;" horiz-adv-x="1179" d="M143 416v510q0 100 26 182t79 139.5t138 88t204 30.5t204 -30.5t138 -88t78.5 -139.5t25.5 -182v-510q0 -102 -25.5 -183t-78.5 -138.5t-138 -88.5t-204 -31t-204 31t-138 88.5t-79 138t-26 183.5zM304 1544v60q0 47 28.5 69.5t81.5 22.5q113 0 113 -92v-60 q0 -90 -113 -90q-53 0 -81.5 23.5t-28.5 66.5zM317 397q0 -131 69 -199.5t204 -68.5t203.5 68.5t68.5 199.5v547q0 129 -67.5 198.5t-204.5 69.5t-205 -68.5t-68 -197.5v-549zM656 1544v60q0 92 110 92q113 0 113 -92v-60q0 -90 -113 -90q-111 0 -110 90z" />
<glyph unicode="&#xd7;" d="M205 831l108 111l222 -221l217 217l102 -102l-217 -218l221 -221l-110 -108l-222 219l-215 -215l-102 102l215 215z" />
<glyph unicode="&#xd8;" horiz-adv-x="1179" d="M72 -102l139 241q-35 53 -51.5 123t-16.5 154v510q0 100 26 182t79 139.5t138 88t204 30.5q164 0 266 -59l78 137h174l-137 -246q66 -104 65 -272v-510q0 -102 -25.5 -183t-78.5 -138.5t-138 -88.5t-204 -31q-84 0 -148.5 14.5t-115.5 43.5l-80 -135h-174zM317 397 q0 -43 7 -80l460 834q-68 61 -194 61q-137 0 -205 -68.5t-68 -197.5v-549zM397 186q66 -57 193 -57q135 0 203.5 68.5t68.5 199.5v547q0 39 -6 74z" />
<glyph unicode="&#xd9;" horiz-adv-x="1179" d="M154 420v921h174v-944q0 -135 68.5 -201.5t193.5 -66.5t193.5 66.5t68.5 201.5v944h174v-917q0 -217 -108.5 -333t-327.5 -116q-213 0 -324.5 111t-111.5 334zM406 1698h182l135 -244h-143z" />
<glyph unicode="&#xda;" horiz-adv-x="1179" d="M154 420v921h174v-944q0 -135 68.5 -201.5t193.5 -66.5t193.5 66.5t68.5 201.5v944h174v-917q0 -217 -108.5 -333t-327.5 -116q-213 0 -324.5 111t-111.5 334zM492 1454l135 244h182l-174 -244h-143z" />
<glyph unicode="&#xdb;" horiz-adv-x="1179" d="M154 420v921h174v-944q0 -135 68.5 -201.5t193.5 -66.5t193.5 66.5t68.5 201.5v944h174v-917q0 -217 -108.5 -333t-327.5 -116q-213 0 -324.5 111t-111.5 334zM323 1456v139l287 125l287 -125v-139l-287 100z" />
<glyph unicode="&#xdc;" horiz-adv-x="1179" d="M154 420v921h174v-944q0 -135 68.5 -201.5t193.5 -66.5t193.5 66.5t68.5 201.5v944h174v-917q0 -217 -108.5 -333t-327.5 -116q-213 0 -324.5 111t-111.5 334zM320 1544v60q0 47 28.5 69.5t81.5 22.5q113 0 113 -92v-60q0 -90 -113 -90q-53 0 -81.5 23.5t-28.5 66.5z M672 1544v60q0 92 110 92q113 0 113 -92v-60q0 -90 -113 -90q-111 0 -110 90z" />
<glyph unicode="&#xdd;" horiz-adv-x="1013" d="M31 1341h198l279 -696l280 696h195l-389 -880v-461h-174v461zM394 1454l135 244h182l-174 -244h-143z" />
<glyph unicode="&#xde;" horiz-adv-x="1146" d="M154 0v1341h174v-249q49 6 96 9t84 3q246 0 359.5 -98.5t113.5 -274.5v-49q0 -186 -110.5 -292.5t-346.5 -106.5q-45 0 -91 3t-105 13v-299h-174zM328 449q70 -10 110.5 -13.5t77.5 -3.5q291 0 291 258v35q0 115 -71.5 174t-231.5 59q-68 0 -106 -3t-70 -7v-499z" />
<glyph unicode="&#xdf;" horiz-adv-x="995" d="M154 0v1094q0 172 75.5 250.5t255.5 78.5q147 0 231.5 -73.5t84.5 -190.5v-55q0 -66 -28 -110t-60.5 -79.5t-60 -67.5t-27.5 -71v-31q0 -31 9 -49t36 -34l96 -58q96 -47 137 -108.5t41 -147.5v-67q0 -166 -63.5 -236t-223.5 -70q-33 0 -83 8.5t-117 22.5l4 154 q53 -12 105 -21.5t91 -9.5q53 0 81 32t28 103v64q0 47 -17.5 74.5t-60.5 52.5l-98 55q-78 43 -105.5 91t-27.5 130v39q0 66 26.5 105.5t58 71.5t58.5 67t27 88v57q0 53 -38 85t-116 32t-111.5 -36t-33.5 -126v-1114h-174z" />
<glyph unicode="&#xe0;" horiz-adv-x="960" d="M113 281v57q0 61 21.5 114.5t61.5 91.5t97 60.5t129 22.5q45 0 104.5 -8.5t106.5 -18.5v109q0 92 -40 128.5t-124 36.5q-31 0 -67.5 -3t-73.5 -8t-73 -10t-62 -9v149q68 10 145.5 20.5t130.5 10.5q176 0 257 -78t81 -252v-694h-166v160q-121 -184 -268 -185 q-117 0 -188.5 81t-71.5 225zM289 293q0 -78 35 -120t88 -42t112.5 47t108.5 137v158q-41 8 -88 11t-80 3q-86 0 -131 -46t-45 -126v-22zM315 1403h174l156 -285h-135z" />
<glyph unicode="&#xe1;" horiz-adv-x="960" d="M113 281v57q0 61 21.5 114.5t61.5 91.5t97 60.5t129 22.5q45 0 104.5 -8.5t106.5 -18.5v109q0 92 -40 128.5t-124 36.5q-31 0 -67.5 -3t-73.5 -8t-73 -10t-62 -9v149q68 10 145.5 20.5t130.5 10.5q176 0 257 -78t81 -252v-694h-166v160q-121 -184 -268 -185 q-117 0 -188.5 81t-71.5 225zM289 293q0 -78 35 -120t88 -42t112.5 47t108.5 137v158q-41 8 -88 11t-80 3q-86 0 -131 -46t-45 -126v-22zM377 1118l155 285h174l-194 -285h-135z" />
<glyph unicode="&#xe2;" horiz-adv-x="960" d="M113 281v57q0 61 21.5 114.5t61.5 91.5t97 60.5t129 22.5q45 0 104.5 -8.5t106.5 -18.5v109q0 92 -40 128.5t-124 36.5q-31 0 -67.5 -3t-73.5 -8t-73 -10t-62 -9v149q68 10 145.5 20.5t130.5 10.5q176 0 257 -78t81 -252v-694h-166v160q-121 -184 -268 -185 q-117 0 -188.5 81t-71.5 225zM221 1118v144l266 151l266 -151v-144l-266 133zM289 293q0 -78 35 -120t88 -42t112.5 47t108.5 137v158q-41 8 -88 11t-80 3q-86 0 -131 -46t-45 -126v-22z" />
<glyph unicode="&#xe3;" horiz-adv-x="960" d="M113 281v57q0 61 21.5 114.5t61.5 91.5t97 60.5t129 22.5q45 0 104.5 -8.5t106.5 -18.5v109q0 92 -40 128.5t-124 36.5q-31 0 -67.5 -3t-73.5 -8t-73 -10t-62 -9v149q68 10 145.5 20.5t130.5 10.5q176 0 257 -78t81 -252v-694h-166v160q-121 -184 -268 -185 q-117 0 -188.5 81t-71.5 225zM228 1198v143q12 12 58 37t106 25q39 0 66.5 -8.5t50 -17.5t44 -17t48.5 -8q18 0 42.5 6t48 14t42 16.5t26.5 14.5v-143q-16 -14 -59 -38t-105 -24q-31 0 -56 8t-50 17.5t-49.5 17.5t-52.5 8q-18 0 -41 -5t-46.5 -13t-43 -17.5t-29.5 -15.5z M289 293q0 -78 35 -120t88 -42t112.5 47t108.5 137v158q-41 8 -88 11t-80 3q-86 0 -131 -46t-45 -126v-22z" />
<glyph unicode="&#xe4;" horiz-adv-x="960" d="M113 281v57q0 61 21.5 114.5t61.5 91.5t97 60.5t129 22.5q45 0 104.5 -8.5t106.5 -18.5v109q0 92 -40 128.5t-124 36.5q-31 0 -67.5 -3t-73.5 -8t-73 -10t-62 -9v149q68 10 145.5 20.5t130.5 10.5q176 0 257 -78t81 -252v-694h-166v160q-121 -184 -268 -185 q-117 0 -188.5 81t-71.5 225zM189 1272v59q0 47 28.5 69.5t81.5 22.5q113 0 113 -92v-59q0 -90 -113 -90q-53 0 -81.5 23.5t-28.5 66.5zM289 293q0 -78 35 -120t88 -42t112.5 47t108.5 137v158q-41 8 -88 11t-80 3q-86 0 -131 -46t-45 -126v-22zM541 1272v59q0 92 110 92 q113 0 113 -92v-59q0 -90 -113 -90q-111 0 -110 90z" />
<glyph unicode="&#xe5;" horiz-adv-x="960" d="M113 281v57q0 61 21.5 114.5t61.5 91.5t97 60.5t129 22.5q45 0 104.5 -8.5t106.5 -18.5v109q0 92 -40 128.5t-124 36.5q-31 0 -67.5 -3t-73.5 -8t-73 -10t-62 -9v149q68 10 145.5 20.5t130.5 10.5q176 0 257 -78t81 -252v-694h-166v160q-121 -184 -268 -185 q-117 0 -188.5 81t-71.5 225zM258 1280q0 104 63.5 154.5t171.5 50.5q106 0 171 -50.5t65 -154.5t-63.5 -154.5t-172.5 -50.5q-106 0 -170.5 50.5t-64.5 154.5zM289 293q0 -78 35 -120t88 -42t112.5 47t108.5 137v158q-41 8 -88 11t-80 3q-86 0 -131 -46t-45 -126v-22z M391 1280q0 -41 22.5 -66.5t79.5 -25.5t80 25.5t23 66.5t-23 66.5t-80 25.5t-79.5 -25.5t-22.5 -66.5z" />
<glyph unicode="&#xe6;" horiz-adv-x="1484" d="M113 281v57q0 61 20.5 113.5t60 91.5t97 61.5t131.5 22.5q45 0 104.5 -8.5t106.5 -18.5v119q0 86 -39 124t-125 38q-31 0 -67.5 -3.5t-73.5 -8.5t-73 -10t-62 -9v143q68 10 145.5 20.5t130.5 10.5q195 0 268 -117q76 117 250 117q172 0 263 -93t91 -274v-211h-534v-120 q0 -104 52 -150.5t161 -46.5q33 0 73 4t78.5 9t75.5 11.5t64 12.5l-8 -154q-68 -12 -146 -24.5t-137 -12.5q-156 0 -235.5 53.5t-108.5 155.5q-63 -100 -137 -154.5t-166 -54.5q-119 0 -189.5 82t-70.5 224zM289 293q0 -78 34.5 -120t88.5 -42q53 0 112.5 47t108.5 137v158 q-41 8 -88 11t-80 3q-86 0 -131 -46t-45 -126v-22zM807 590h360v88q0 98 -48 149.5t-132 51.5q-80 0 -128 -46.5t-52 -138.5v-104z" />
<glyph unicode="&#xe7;" horiz-adv-x="821" d="M143 348v303q0 180 89.5 276.5t281.5 96.5q53 0 93 -5t108 -15l-4 -154q-53 10 -95.5 15t-101.5 5q-98 0 -147.5 -53t-49.5 -151v-330q0 -104 52.5 -155.5t144.5 -51.5q59 0 101 5t96 16l4 -154q-68 -10 -108 -15.5t-93 -5.5l-18 -59h20q43 0 75 -36t32 -95v-31 q0 -158 -195 -157q-25 0 -48.5 3t-51.5 7v108q23 -4 40 -6t33 -2q45 0 64.5 13.5t19.5 35.5v27q-2 31 -18 42t-51 11h-62v43l33 111q-125 29 -184.5 119t-59.5 239z" />
<glyph unicode="&#xe8;" horiz-adv-x="956" d="M143 336v321q0 178 85 272.5t264 94.5q174 0 263 -93t89 -274v-211h-527v-120q0 -104 49.5 -150.5t157.5 -46.5q33 0 72 4t79 9t75.5 11.5t62.5 12.5l-8 -154q-68 -12 -144.5 -24.5t-136.5 -12.5q-207 0 -294 89.5t-87 271.5zM317 586h353v92q0 102 -49.5 151.5 t-128.5 49.5q-78 0 -126.5 -49.5t-48.5 -145.5v-98zM317 1403h174l156 -285h-135z" />
<glyph unicode="&#xe9;" horiz-adv-x="956" d="M143 336v321q0 178 85 272.5t264 94.5q174 0 263 -93t89 -274v-211h-527v-120q0 -104 49.5 -150.5t157.5 -46.5q33 0 72 4t79 9t75.5 11.5t62.5 12.5l-8 -154q-68 -12 -144.5 -24.5t-136.5 -12.5q-207 0 -294 89.5t-87 271.5zM317 586h353v92q0 102 -49.5 151.5 t-128.5 49.5q-78 0 -126.5 -49.5t-48.5 -145.5v-98zM342 1118l155 285h174l-194 -285h-135z" />
<glyph unicode="&#xea;" horiz-adv-x="956" d="M143 336v321q0 178 85 272.5t264 94.5q174 0 263 -93t89 -274v-211h-527v-120q0 -104 49.5 -150.5t157.5 -46.5q33 0 72 4t79 9t75.5 11.5t62.5 12.5l-8 -154q-68 -12 -144.5 -24.5t-136.5 -12.5q-207 0 -294 89.5t-87 271.5zM232 1118v144l266 151l266 -151v-144 l-266 133zM317 586h353v92q0 102 -49.5 151.5t-128.5 49.5q-78 0 -126.5 -49.5t-48.5 -145.5v-98z" />
<glyph unicode="&#xeb;" horiz-adv-x="956" d="M143 336v321q0 178 85 272.5t264 94.5q174 0 263 -93t89 -274v-211h-527v-120q0 -104 49.5 -150.5t157.5 -46.5q33 0 72 4t79 9t75.5 11.5t62.5 12.5l-8 -154q-68 -12 -144.5 -24.5t-136.5 -12.5q-207 0 -294 89.5t-87 271.5zM213 1272v59q0 47 28.5 69.5t81.5 22.5 q113 0 113 -92v-59q0 -90 -113 -90q-53 0 -81.5 23.5t-28.5 66.5zM317 586h353v92q0 102 -49.5 151.5t-128.5 49.5q-78 0 -126.5 -49.5t-48.5 -145.5v-98zM565 1272v59q0 92 110 92q113 0 113 -92v-59q0 -90 -113 -90q-111 0 -110 90z" />
<glyph unicode="&#xec;" horiz-adv-x="501" d="M80 1403h174l156 -285h-135zM164 0v999h174v-999h-174z" />
<glyph unicode="&#xed;" horiz-adv-x="501" d="M101 1118l155 285h174l-194 -285h-135zM164 0v999h174v-999h-174z" />
<glyph unicode="&#xee;" horiz-adv-x="501" d="M-12 1118v144l266 151l266 -151v-144l-266 133zM164 0v999h174v-999h-174z" />
<glyph unicode="&#xef;" horiz-adv-x="501" d="M-39 1272v59q0 47 28.5 69.5t81.5 22.5q113 0 113 -92v-59q0 -90 -113 -90q-53 0 -81.5 23.5t-28.5 66.5zM164 0v999h174v-999h-174zM313 1272v59q0 92 110 92q113 0 113 -92v-59q0 -90 -113 -90q-111 0 -110 90z" />
<glyph unicode="&#xf0;" horiz-adv-x="1017" d="M154 322v235q0 172 72.5 257t199.5 85q70 0 136.5 -38t125.5 -122v52q0 96 -22.5 173.5t-63.5 139.5l-240 -70v135l140 41q-113 82 -266 82v131q287 0 446 -161l203 59v-135l-121 -35q47 -86 72.5 -199.5t25.5 -255.5v-348q0 -180 -89 -276.5t-265 -96.5q-186 0 -270 83 t-84 264zM328 303q0 -182 180 -182t180 182v272q-51 86 -111.5 127t-115.5 41q-59 0 -96 -49t-37 -162v-229z" />
<glyph unicode="&#xf1;" horiz-adv-x="1005" d="M154 0v999h163v-149q53 84 123 129t150 45q131 0 201.5 -88t70.5 -254v-682h-174v657q0 111 -37 158t-96 47t-120.5 -45t-106.5 -123v-694h-174zM242 1198v143q12 12 58 37t106 25q39 0 66.5 -8.5t50 -17.5t44 -17t48.5 -8q18 0 42.5 6t48 14t42 16.5t26.5 14.5v-143 q-16 -14 -59 -38t-105 -24q-31 0 -56 8t-50 17.5t-49.5 17.5t-52.5 8q-18 0 -41 -5t-46.5 -13t-43 -17.5t-29.5 -15.5z" />
<glyph unicode="&#xf2;" horiz-adv-x="1007" d="M143 348v303q0 174 86 273.5t275 99.5q188 0 274 -99.5t86 -273.5v-303q0 -174 -86 -273.5t-274 -99.5t-274.5 99.5t-86.5 273.5zM317 334q0 -104 49.5 -158.5t137.5 -54.5t137 54t49 159v334q0 104 -49 157.5t-137 53.5t-137.5 -54.5t-49.5 -158.5v-332zM321 1403h174 l156 -285h-135z" />
<glyph unicode="&#xf3;" horiz-adv-x="1007" d="M143 348v303q0 174 86 273.5t275 99.5q188 0 274 -99.5t86 -273.5v-303q0 -174 -86 -273.5t-274 -99.5t-274.5 99.5t-86.5 273.5zM317 334q0 -104 49.5 -158.5t137.5 -54.5t137 54t49 159v334q0 104 -49 157.5t-137 53.5t-137.5 -54.5t-49.5 -158.5v-332zM342 1118 l155 285h174l-194 -285h-135z" />
<glyph unicode="&#xf4;" horiz-adv-x="1007" d="M143 348v303q0 174 86 273.5t275 99.5q188 0 274 -99.5t86 -273.5v-303q0 -174 -86 -273.5t-274 -99.5t-274.5 99.5t-86.5 273.5zM232 1118v144l266 151l266 -151v-144l-266 133zM317 334q0 -104 49.5 -158.5t137.5 -54.5t137 54t49 159v334q0 104 -49 157.5t-137 53.5 t-137.5 -54.5t-49.5 -158.5v-332z" />
<glyph unicode="&#xf5;" horiz-adv-x="1007" d="M143 348v303q0 174 86 273.5t275 99.5q188 0 274 -99.5t86 -273.5v-303q0 -174 -86 -273.5t-274 -99.5t-274.5 99.5t-86.5 273.5zM232 1198v143q12 12 58 37t106 25q39 0 66.5 -8.5t50 -17.5t44 -17t48.5 -8q18 0 42.5 6t48 14t42 16.5t26.5 14.5v-143q-16 -14 -59 -38 t-105 -24q-31 0 -56 8t-50 17.5t-49.5 17.5t-52.5 8q-18 0 -41 -5t-46.5 -13t-43 -17.5t-29.5 -15.5zM317 334q0 -104 49.5 -158.5t137.5 -54.5t137 54t49 159v334q0 104 -49 157.5t-137 53.5t-137.5 -54.5t-49.5 -158.5v-332z" />
<glyph unicode="&#xf6;" horiz-adv-x="1007" d="M143 348v303q0 174 86 273.5t275 99.5q188 0 274 -99.5t86 -273.5v-303q0 -174 -86 -273.5t-274 -99.5t-274.5 99.5t-86.5 273.5zM222 1272v59q0 47 28.5 69.5t81.5 22.5q113 0 113 -92v-59q0 -90 -113 -90q-53 0 -81.5 23.5t-28.5 66.5zM317 334q0 -104 49.5 -158.5 t137.5 -54.5t137 54t49 159v334q0 104 -49 157.5t-137 53.5t-137.5 -54.5t-49.5 -158.5v-332zM574 1272v59q0 92 110 92q113 0 113 -92v-59q0 -90 -113 -90q-111 0 -110 90z" />
<glyph unicode="&#xf7;" d="M170 543v143h725v-143h-725zM434 315v35q0 41 24.5 65.5t73.5 24.5q51 0 76 -24.5t25 -65.5v-35q0 -41 -24.5 -64.5t-76.5 -23.5q-49 0 -73.5 23.5t-24.5 64.5zM434 877v34q0 41 24.5 65.5t73.5 24.5q51 0 76 -24.5t25 -65.5v-34q0 -41 -24.5 -65t-76.5 -24 q-49 0 -73.5 24t-24.5 65z" />
<glyph unicode="&#xf8;" horiz-adv-x="1007" d="M12 -104l168 251q-37 82 -37 201v303q0 174 86 273.5t275 99.5q135 0 221 -57l90 135h180l-168 -254q37 -84 37 -197v-303q0 -174 -86 -273.5t-274 -99.5q-70 0 -125 14.5t-96 41.5l-90 -135h-181zM317 324l328 495q-47 59 -141 60q-88 0 -137.5 -54.5t-49.5 -158.5v-342 zM362 178q49 -57 142 -57q88 0 137 54t49 159v334z" />
<glyph unicode="&#xf9;" horiz-adv-x="1015" d="M154 317v682h174v-651q0 -113 36.5 -162t96.5 -49q59 0 119.5 44t107.5 122v696h174v-999h-164v143q-55 -82 -123.5 -125t-148.5 -43q-125 0 -198.5 84t-73.5 258zM291 1403h174l156 -285h-135z" />
<glyph unicode="&#xfa;" horiz-adv-x="1015" d="M154 317v682h174v-651q0 -113 36.5 -162t96.5 -49q59 0 119.5 44t107.5 122v696h174v-999h-164v143q-55 -82 -123.5 -125t-148.5 -43q-125 0 -198.5 84t-73.5 258zM414 1118l155 285h174l-194 -285h-135z" />
<glyph unicode="&#xfb;" horiz-adv-x="1015" d="M154 317v682h174v-651q0 -113 36.5 -162t96.5 -49q59 0 119.5 44t107.5 122v696h174v-999h-164v143q-55 -82 -123.5 -125t-148.5 -43q-125 0 -198.5 84t-73.5 258zM242 1118v144l266 151l266 -151v-144l-266 133z" />
<glyph unicode="&#xfc;" horiz-adv-x="1015" d="M154 317v682h174v-651q0 -113 36.5 -162t96.5 -49q59 0 119.5 44t107.5 122v696h174v-999h-164v143q-55 -82 -123.5 -125t-148.5 -43q-125 0 -198.5 84t-73.5 258zM217 1272v59q0 47 28.5 69.5t81.5 22.5q113 0 113 -92v-59q0 -90 -113 -90q-53 0 -81.5 23.5t-28.5 66.5z M569 1272v59q0 92 110 92q113 0 113 -92v-59q0 -90 -113 -90q-111 0 -110 90z" />
<glyph unicode="&#xfd;" horiz-adv-x="921" d="M31 999h190l215 -874l266 874h181l-459 -1378h-174l131 379h-66zM363 1118l155 285h174l-194 -285h-135z" />
<glyph unicode="&#xfe;" horiz-adv-x="1003" d="M154 -379v1778h174v-531q53 76 117.5 116t142.5 40q129 0 200.5 -86t71.5 -256v-365q0 -162 -83 -252t-224 -90q-57 0 -118.5 22.5t-106.5 49.5v-426h-174zM328 203q45 -35 96 -54.5t94 -19.5q168 0 168 213v315q0 117 -37 164t-96 47t-119.5 -43t-105.5 -120v-502z" />
<glyph unicode="&#xff;" horiz-adv-x="921" d="M31 999h190l215 -874l266 874h181l-459 -1378h-174l131 379h-66zM197 1272v59q0 47 28.5 69.5t81.5 22.5q113 0 113 -92v-59q0 -90 -113 -90q-53 0 -81.5 23.5t-28.5 66.5zM549 1272v59q0 92 110 92q113 0 113 -92v-59q0 -90 -113 -90q-111 0 -110 90z" />
<glyph unicode="&#x152;" horiz-adv-x="1579" d="M143 416v510q0 215 106.5 327.5t311.5 112.5q111 0 197 -25h688v-157h-533v-424h492v-156h-492v-446h533v-158h-688q-84 -25 -189 -25q-217 0 -321.5 115t-104.5 326zM317 397q0 -129 67 -198.5t196 -69.5q53 0 91 3t68 13v1041q-61 27 -159 26q-127 0 -195 -67.5 t-68 -198.5v-549z" />
<glyph unicode="&#x153;" horiz-adv-x="1521" d="M143 348v303q0 172 84 272.5t273 100.5q94 0 161.5 -33t112.5 -90q43 57 111.5 90t163.5 33q174 0 262 -96.5t88 -270.5v-211h-535v-120q0 -104 51.5 -150.5t161.5 -46.5q33 0 73 4t79 9t75.5 11.5t63.5 12.5l-8 -154q-68 -12 -145.5 -24.5t-137.5 -12.5 q-111 0 -183.5 32t-119.5 91q-43 -57 -109.5 -90t-160.5 -33q-188 0 -274.5 100.5t-86.5 272.5zM317 334q0 -104 49.5 -158.5t137.5 -54.5q86 0 134 51t52 152v346q0 104 -50 156.5t-136 52.5q-88 0 -137.5 -54.5t-49.5 -158.5v-332zM864 590h361v88q0 98 -48.5 149.5 t-132.5 51.5t-132 -50.5t-48 -148.5v-90z" />
<glyph unicode="&#x2c6;" horiz-adv-x="942" d="M205 1118v144l266 151l266 -151v-144l-266 133z" />
<glyph unicode="&#x2dc;" horiz-adv-x="942" d="M205 1198v143q12 12 58 37t106 25q39 0 66.5 -8.5t50 -17.5t44 -17t48.5 -8q18 0 42.5 6t48 14t42 16.5t26.5 14.5v-143q-16 -14 -59 -38t-105 -24q-31 0 -56 8t-50 17.5t-49.5 17.5t-52.5 8q-18 0 -41 -5t-46.5 -13t-43 -17.5t-29.5 -15.5z" />
<glyph unicode="&#x2000;" horiz-adv-x="860" />
<glyph unicode="&#x2001;" horiz-adv-x="1720" />
<glyph unicode="&#x2002;" horiz-adv-x="860" />
<glyph unicode="&#x2003;" horiz-adv-x="1720" />
<glyph unicode="&#x2004;" horiz-adv-x="573" />
<glyph unicode="&#x2005;" horiz-adv-x="430" />
<glyph unicode="&#x2006;" horiz-adv-x="286" />
<glyph unicode="&#x2007;" horiz-adv-x="286" />
<glyph unicode="&#x2008;" horiz-adv-x="215" />
<glyph unicode="&#x2009;" horiz-adv-x="344" />
<glyph unicode="&#x200a;" horiz-adv-x="95" />
<glyph unicode="&#x2010;" horiz-adv-x="716" d="M133 539v133h451v-133h-451z" />
<glyph unicode="&#x2011;" horiz-adv-x="716" d="M133 539v133h451v-133h-451z" />
<glyph unicode="&#x2012;" horiz-adv-x="716" d="M133 539v133h451v-133h-451z" />
<glyph unicode="&#x2013;" horiz-adv-x="1249" d="M133 539v133h983v-133h-983z" />
<glyph unicode="&#x2014;" horiz-adv-x="1454" d="M133 539v133h1188v-133h-1188z" />
<glyph unicode="&#x2018;" horiz-adv-x="444" d="M121 1079v62q0 57 15 102l61 182h121l-47 -203q70 -16 69 -86v-57q0 -90 -108 -90q-111 0 -111 90z" />
<glyph unicode="&#x2019;" horiz-adv-x="444" d="M113 1276v57q0 90 108 90q111 0 111 -90v-62q0 -57 -15 -102l-61 -182h-121l47 203q-70 16 -69 86z" />
<glyph unicode="&#x201a;" horiz-adv-x="444" d="M113 68v57q0 90 108 90q111 0 111 -90v-62q0 -57 -15 -102l-61 -182h-121l47 203q-70 16 -69 86z" />
<glyph unicode="&#x201c;" horiz-adv-x="731" d="M121 1077v62q0 57 15 102l61 182h121l-47 -203q70 -16 69 -86v-57q0 -90 -108 -90q-111 0 -111 90zM407 1077v62q0 57 15 102l61 182h121l-47 -203q70 -16 69 -86v-57q0 -90 -108 -90q-111 0 -111 90z" />
<glyph unicode="&#x201d;" horiz-adv-x="731" d="M113 1276v57q0 90 108 90q111 0 111 -90v-62q0 -57 -15 -102l-61 -182h-121l47 203q-70 16 -69 86zM400 1276v57q0 90 108 90q111 0 111 -90v-62q0 -57 -15 -102l-61 -182h-121l47 203q-70 16 -69 86z" />
<glyph unicode="&#x201e;" horiz-adv-x="731" d="M113 68v57q0 90 108 90q111 0 111 -90v-62q0 -57 -15 -102l-61 -182h-121l47 203q-70 16 -69 86zM400 68v57q0 90 108 90q111 0 111 -90v-62q0 -57 -15 -102l-61 -182h-121l47 203q-70 16 -69 86z" />
<glyph unicode="&#x2022;" horiz-adv-x="481" d="M113 514v68q0 51 33.5 77.5t93.5 26.5q61 0 95 -26.5t34 -77.5v-68q0 -51 -34 -77.5t-95 -26.5q-59 0 -93 26.5t-34 77.5z" />
<glyph unicode="&#x202f;" horiz-adv-x="344" />
<glyph unicode="&#x2039;" horiz-adv-x="651" d="M133 651l205 348h180l-190 -348l190 -348h-180z" />
<glyph unicode="&#x203a;" horiz-adv-x="651" d="M133 303l191 348l-191 348h180l205 -348l-205 -348h-180z" />
<glyph unicode="&#x205f;" horiz-adv-x="430" />
<glyph unicode="&#x20ac;" d="M96 397l31 144h139v127h-157l30 143h127v31q0 209 93.5 311t312.5 102q70 0 142.5 -10t139.5 -22l-4 -150q-53 10 -127.5 21.5t-150.5 11.5q-123 0 -177.5 -57.5t-54.5 -190.5v-47h428l-30 -143h-398v-127h373l-31 -144h-342v-22q0 -131 54.5 -188.5t177.5 -57.5 q76 0 150.5 11.5t127.5 21.5l4 -154q-68 -12 -140.5 -22.5t-141.5 -10.5q-111 0 -188.5 26t-126 78t-70 130t-21.5 180v8h-170z" />
<glyph unicode="&#x25fc;" horiz-adv-x="1003" d="M0 0v1004h1004v-1004h-1004z" />
</font>
</defs>
</svg>
